<svg width="48" height="48" viewBox="0 0 48 48" fill="none" xmlns="http://www.w3.org/2000/svg">
<path opacity="0.2" d="M22.9429 3.31713L3.32073 22.9393C2.73494 23.5251 2.73494 24.4749 3.32073 25.0607L22.9496 44.6895C23.5354 45.2753 24.4851 45.2753 25.0709 44.6895L44.6931 25.0673C45.2789 24.4815 45.2789 23.5318 44.6931 22.946L25.0643 3.31713C24.4785 2.73134 23.5287 2.73134 22.9429 3.31713Z" fill="#2F80ED"/>
<path d="M27 27L31.5 22.5L27 18" stroke="#2F80ED" stroke-width="3" stroke-linecap="round" stroke-linejoin="round"/>
<path d="M22.9429 3.31713L3.32073 22.9393C2.73494 23.5251 2.73494 24.4749 3.32073 25.0607L22.9496 44.6895C23.5354 45.2753 24.4851 45.2753 25.0709 44.6895L44.6931 25.0673C45.2789 24.4815 45.2789 23.5318 44.6931 22.946L25.0643 3.31713C24.4785 2.73134 23.5287 2.73134 22.9429 3.31713Z" stroke="#2F80ED" stroke-width="3" stroke-linecap="round" stroke-linejoin="round"/>
<path d="M16.5 28.5V27C16.4975 26.4083 16.6122 25.8221 16.8375 25.275C17.0627 24.7279 17.3941 24.2308 17.8125 23.8125C18.2308 23.3941 18.7279 23.0627 19.275 22.8375C19.8221 22.6122 20.4083 22.4975 21 22.5H31.5" stroke="#2F80ED" stroke-width="3" stroke-linecap="round" stroke-linejoin="round"/>
</svg>
