<svg width="32" height="32" viewBox="0 0 32 32" fill="none" xmlns="http://www.w3.org/2000/svg">
<path d="M26.2128 15.2875C26.399 15.4788 26.5021 15.7357 26.4997 16.0026C26.4974 16.2694 26.3898 16.5246 26.2003 16.7125L15.9504 26.95C14.6375 28.2628 12.857 29.0004 11.0004 29.0004C9.14374 29.0004 7.36318 28.2628 6.05036 26.95C4.73754 25.6372 4 23.8566 4 22C4 20.1434 4.73754 18.3628 6.05036 17.05L18.4628 4.47502C18.9221 3.99079 19.4736 3.60339 20.085 3.33567C20.6963 3.06795 21.355 2.92532 22.0223 2.91619C22.6897 2.90706 23.352 3.03162 23.9705 3.28252C24.5889 3.53342 25.1508 3.90558 25.6231 4.37707C26.0955 4.84856 26.4686 5.40983 26.7206 6.0278C26.9726 6.64578 27.0983 7.30795 27.0904 7.97528C27.0824 8.64261 26.941 9.30159 26.6743 9.91339C26.4077 10.5252 26.0213 11.0774 25.5378 11.5375L13.1254 24.1125C12.8479 24.3942 12.5171 24.6178 12.1522 24.7702C11.7873 24.9226 11.3958 25.0007 11.0004 25C10.4059 25.0015 9.82449 24.8263 9.32978 24.4968C8.83508 24.1672 8.44942 23.6982 8.22175 23.1491C7.99408 22.6 7.93466 21.9956 8.05103 21.4127C8.1674 20.8298 8.45431 20.2946 8.87535 19.875L19.2878 9.30002C19.378 9.19895 19.4876 9.11724 19.6103 9.05983C19.7329 9.00242 19.8659 8.97051 20.0012 8.96603C20.1365 8.96155 20.2714 8.98461 20.3975 9.03379C20.5237 9.08297 20.6385 9.15726 20.7351 9.25215C20.8317 9.34704 20.908 9.46055 20.9594 9.58581C21.0108 9.71107 21.0362 9.84547 21.0342 9.98085C21.0321 10.1162 21.0025 10.2498 20.9473 10.3734C20.8921 10.497 20.8123 10.6081 20.7128 10.7L10.3004 21.2875C10.2056 21.3804 10.1302 21.4913 10.0787 21.6136C10.0272 21.7359 10.0006 21.8673 10.0004 22C10.004 22.1967 10.0649 22.3882 10.1756 22.5508C10.2864 22.7135 10.4421 22.8404 10.6237 22.916C10.8054 22.9915 11.0052 23.0126 11.1986 22.9764C11.392 22.9403 11.5707 22.8486 11.7129 22.7125L24.1128 10.125C24.3946 9.84757 24.6182 9.51674 24.7705 9.15187C24.9229 8.78701 25.0011 8.39543 25.0003 8.00002C25.0018 7.4056 24.8267 6.82415 24.4971 6.32945C24.1676 5.83474 23.6985 5.44909 23.1494 5.22142C22.6003 4.99375 21.996 4.93433 21.4131 5.05069C20.8301 5.16706 20.2949 5.45397 19.8753 5.87502L7.47536 18.4625C6.99112 18.9218 6.60373 19.4733 6.33601 20.0846C6.06829 20.696 5.92566 21.3547 5.91653 22.022C5.9074 22.6893 6.03196 23.3517 6.28285 23.9701C6.53375 24.5885 6.90592 25.1505 7.3774 25.6228C7.84889 26.0951 8.41017 26.4683 9.02814 26.7203C9.64612 26.9723 10.3083 27.098 10.9756 27.09C11.6429 27.0821 12.3019 26.9406 12.9137 26.674C13.5255 26.4074 14.0777 26.0209 14.5379 25.5375L24.7878 15.2875C24.9774 15.0997 25.2335 14.9944 25.5003 14.9944C25.7672 14.9944 26.0233 15.0997 26.2128 15.2875Z" fill="#2F80ED"/>
</svg>
