<svg width="49" height="48" viewBox="0 0 49 48" fill="none" xmlns="http://www.w3.org/2000/svg">
<path opacity="0.2" d="M33.5 10.5H15.5C14.6716 10.5 14 11.1716 14 12V19.5C14 20.3284 14.6716 21 15.5 21H33.5C34.3284 21 35 20.3284 35 19.5V12C35 11.1716 34.3284 10.5 33.5 10.5Z" fill="#2F80ED"/>
<path opacity="0.2" d="M41 27H15.5C14.6716 27 14 27.6716 14 28.5V36C14 36.8284 14.6716 37.5 15.5 37.5H41C41.8284 37.5 42.5 36.8284 42.5 36V28.5C42.5 27.6716 41.8284 27 41 27Z" fill="#2F80ED"/>
<path d="M41 27H15.5C14.6716 27 14 27.6716 14 28.5V36C14 36.8284 14.6716 37.5 15.5 37.5H41C41.8284 37.5 42.5 36.8284 42.5 36V28.5C42.5 27.6716 41.8284 27 41 27Z" stroke="#2F80ED" stroke-width="3" stroke-linecap="round" stroke-linejoin="round"/>
<path d="M8 7.5V40.5" stroke="#2F80ED" stroke-width="3" stroke-linecap="round" stroke-linejoin="round"/>
<path d="M33.5 10.5H15.5C14.6716 10.5 14 11.1716 14 12V19.5C14 20.3284 14.6716 21 15.5 21H33.5C34.3284 21 35 20.3284 35 19.5V12C35 11.1716 34.3284 10.5 33.5 10.5Z" stroke="#2F80ED" stroke-width="3" stroke-linecap="round" stroke-linejoin="round"/>
</svg>
