<svg width="27" height="27" viewBox="0 0 27 27" fill="none" xmlns="http://www.w3.org/2000/svg">
<path fill-rule="evenodd" clip-rule="evenodd" d="M19.0961 3.37495C19.0961 2.76916 18.605 2.27808 17.9992 2.27808C17.3934 2.27808 16.9023 2.76916 16.9023 3.37495V4.80933H10.0961V3.37495C10.0961 2.76916 9.60501 2.27808 8.99922 2.27808C8.39343 2.27808 7.90234 2.76916 7.90234 3.37495V4.80933H5.62422C3.91795 4.80933 2.27734 6.04885 2.27734 7.87495V21.6562C2.27734 23.4823 3.91795 24.7218 5.62422 24.7218H21.3742C23.0805 24.7218 24.7211 23.4823 24.7211 21.6562V7.87495C24.7211 6.04885 23.0805 4.80933 21.3742 4.80933H19.0961V3.37495ZM5.62422 7.00308C4.8452 7.00308 4.47109 7.52643 4.47109 7.87495V10.7156H22.5273V7.87495C22.5273 7.52643 22.1532 7.00308 21.3742 7.00308H19.0961V7.87495C19.0961 8.48074 18.605 8.97183 17.9992 8.97183C17.3934 8.97183 16.9023 8.48074 16.9023 7.87495V7.00308H10.0961V7.87495C10.0961 8.48074 9.60501 8.97183 8.99922 8.97183C8.39343 8.97183 7.90234 8.48074 7.90234 7.87495V7.00308H5.62422ZM5.62422 22.5281C4.8452 22.5281 4.47109 22.0047 4.47109 21.6562V12.9093H22.5273V21.6562C22.5273 22.0047 22.1532 22.5281 21.3742 22.5281H5.62422Z" fill="#2F80ED"/>
</svg>
