<svg width="49" height="48" viewBox="0 0 49 48" fill="none" xmlns="http://www.w3.org/2000/svg">
<path opacity="0.2" d="M30.5 24C30.5042 25.3932 30.0249 26.7448 29.1438 27.8241C28.2628 28.9034 27.0345 29.6436 25.6687 29.9185C24.3028 30.1934 22.8838 29.9858 21.6539 29.3313C20.4239 28.6768 19.4591 27.6159 18.9241 26.3295C18.389 25.043 18.3168 23.6108 18.7198 22.2771C19.1228 20.9434 19.9761 19.7908 21.134 19.016C22.2919 18.2411 23.6828 17.892 25.0694 18.0281C26.456 18.1642 27.7524 18.7772 28.7375 19.7625L37.2313 11.2687C34.2874 8.32334 30.4134 6.48979 26.2692 6.08048C22.1251 5.67116 17.9672 6.71141 14.5041 9.02398C11.0409 11.3365 8.4867 14.7784 7.27666 18.763C6.06662 22.7476 6.2756 27.0285 7.868 30.8764C9.4604 34.7242 12.3377 37.9008 16.0096 39.8651C19.6816 41.8293 23.921 42.4597 28.0056 41.6486C32.0902 40.8376 35.7672 38.6355 38.4101 35.4173C41.0531 32.1992 42.4985 28.1643 42.5 24H30.5Z" fill="#2F80ED"/>
<path d="M24.5 42C34.4411 42 42.5 33.9411 42.5 24C42.5 14.0589 34.4411 6 24.5 6C14.5589 6 6.5 14.0589 6.5 24C6.5 33.9411 14.5589 42 24.5 42Z" stroke="#2F80ED" stroke-width="3" stroke-linecap="round" stroke-linejoin="round"/>
<path d="M24.5 30C27.8137 30 30.5 27.3137 30.5 24C30.5 20.6863 27.8137 18 24.5 18C21.1863 18 18.5 20.6863 18.5 24C18.5 27.3137 21.1863 30 24.5 30Z" stroke="#2F80ED" stroke-width="3" stroke-linecap="round" stroke-linejoin="round"/>
<path d="M42.5 24H30.5" stroke="#2F80ED" stroke-width="3" stroke-linecap="round" stroke-linejoin="round"/>
<path d="M37.2313 11.2688L28.7375 19.7625" stroke="#2F80ED" stroke-width="3" stroke-linecap="round" stroke-linejoin="round"/>
</svg>
