<svg width="27" height="27" viewBox="0 0 27 27" fill="none" xmlns="http://www.w3.org/2000/svg">
<path d="M13.5 2.53125C11.3306 2.53125 9.20989 3.17456 7.40609 4.37982C5.60229 5.58508 4.1964 7.29816 3.3662 9.30244C2.536 11.3067 2.31878 13.5122 2.74202 15.6399C3.16525 17.7676 4.20992 19.7221 5.74393 21.2561C7.27793 22.7901 9.23238 23.8348 11.3601 24.258C13.4878 24.6812 15.6933 24.464 17.6976 23.6338C19.7018 22.8036 21.4149 21.3977 22.6202 19.5939C23.8254 17.7901 24.4688 15.6694 24.4688 13.5C24.4632 10.5926 23.3058 7.80591 21.2499 5.75008C19.1941 3.69425 16.4074 2.53683 13.5 2.53125ZM13.2891 7.59375C13.5394 7.59375 13.7841 7.66798 13.9922 7.80705C14.2003 7.94612 14.3626 8.14378 14.4583 8.37504C14.5541 8.6063 14.5792 8.86078 14.5304 9.10629C14.4815 9.35179 14.361 9.57731 14.184 9.75431C14.007 9.93131 13.7815 10.0518 13.536 10.1007C13.2905 10.1495 13.036 10.1245 12.8047 10.0287C12.5735 9.93287 12.3758 9.77065 12.2367 9.56252C12.0977 9.35439 12.0234 9.10969 12.0234 8.85938C12.0234 8.52371 12.1568 8.20179 12.3941 7.96444C12.6315 7.72709 12.9534 7.59375 13.2891 7.59375ZM14.3438 19.4063H13.5C13.2762 19.4063 13.0616 19.3174 12.9034 19.1591C12.7451 19.0009 12.6563 18.7863 12.6563 18.5625V13.5C12.4325 13.5 12.2179 13.4111 12.0596 13.2529C11.9014 13.0946 11.8125 12.88 11.8125 12.6563C11.8125 12.4325 11.9014 12.2179 12.0596 12.0596C12.2179 11.9014 12.4325 11.8125 12.6563 11.8125H13.5C13.7238 11.8125 13.9384 11.9014 14.0966 12.0596C14.2549 12.2179 14.3438 12.4325 14.3438 12.6563V17.7188C14.5675 17.7188 14.7821 17.8076 14.9404 17.9659C15.0986 18.1241 15.1875 18.3387 15.1875 18.5625C15.1875 18.7863 15.0986 19.0009 14.9404 19.1591C14.7821 19.3174 14.5675 19.4063 14.3438 19.4063Z" fill="#1CD88B"/>
</svg>
