<svg width="27" height="27" viewBox="0 0 27 27" fill="none" xmlns="http://www.w3.org/2000/svg">
<path fill-rule="evenodd" clip-rule="evenodd" d="M2.27744 8.42171C2.27731 8.43156 2.27731 8.44141 2.27744 8.45125V20.5664C2.27744 22.3804 3.74585 23.8781 5.56807 23.8781H21.4306C23.2528 23.8781 24.7212 22.3804 24.7212 20.5664V8.45123C24.7213 8.4414 24.7213 8.43157 24.7212 8.42173V8.12104C24.7212 6.30701 23.2528 4.80933 21.4306 4.80933H5.56807C3.74585 4.80933 2.27744 6.30701 2.27744 8.12104V8.42171ZM4.49699 7.8806C4.60713 7.3758 5.05566 7.00308 5.56807 7.00308H21.4306C21.943 7.00308 22.3915 7.3758 22.5016 7.8806L13.4993 13.8534L4.49699 7.8806ZM14.1237 16.0893L22.5274 10.5309V20.5664C22.5274 21.1887 22.0215 21.6843 21.4306 21.6843H5.56807C4.97716 21.6843 4.47119 21.1887 4.47119 20.5664V10.5309L12.875 16.0893C13.2506 16.3493 13.7481 16.3493 14.1237 16.0893Z" fill="#2F80ED"/>
</svg>
