<svg width="27" height="27" viewBox="0 0 27 27" fill="none" xmlns="http://www.w3.org/2000/svg">
<path fill-rule="evenodd" clip-rule="evenodd" d="M9.87109 11.8125C9.87109 9.80869 11.4955 8.18433 13.4992 8.18433C15.503 8.18433 17.1273 9.80869 17.1273 11.8125C17.1273 13.8162 15.503 15.4406 13.4992 15.4406C11.4955 15.4406 9.87109 13.8162 9.87109 11.8125ZM13.4992 10.3781C12.707 10.3781 12.0648 11.0203 12.0648 11.8125C12.0648 12.6046 12.707 13.2468 13.4992 13.2468C14.2914 13.2468 14.9336 12.6046 14.9336 11.8125C14.9336 11.0203 14.2914 10.3781 13.4992 10.3781Z" fill="#2F80ED"/>
<path fill-rule="evenodd" clip-rule="evenodd" d="M14.1264 24.5248C13.7495 24.7875 13.2483 24.7871 12.8715 24.5244L12.8707 24.5239L12.8687 24.5225L12.8626 24.5182L12.8424 24.5039C12.8253 24.4918 12.8013 24.4746 12.7706 24.4524C12.7094 24.4081 12.622 24.3439 12.512 24.2608C12.2921 24.0949 11.9817 23.8532 11.6109 23.5445C8.23771 20.7363 4.80859 16.7724 4.80859 12.1576C4.80859 9.77652 5.7129 7.48367 7.33698 5.78577C8.96264 4.08621 11.1782 3.12183 13.4992 3.12183C15.8202 3.12183 18.0358 4.08621 19.6615 5.78577C21.2855 7.48367 22.1898 9.77652 22.1898 12.1576C22.1898 16.7724 18.7607 20.7363 15.3875 23.5445C15.0167 23.8532 14.7063 24.0949 14.4865 24.2608C14.3765 24.3439 14.289 24.4081 14.2278 24.4524C14.1972 24.4746 14.1731 24.4918 14.1561 24.5039L14.1358 24.5182L14.1297 24.5225L14.1277 24.5239L14.1264 24.5248ZM13.4992 5.31558C11.7923 5.31558 10.1448 6.02403 8.92227 7.30214C7.69815 8.58191 7.00234 10.3277 7.00234 12.1576C7.00234 16.083 10.1607 19.4828 13.0145 21.8585C13.1935 22.0075 13.3565 22.139 13.4992 22.2516C13.6419 22.139 13.8049 22.0075 13.984 21.8585C16.8377 19.4828 19.9961 16.083 19.9961 12.1576C19.9961 10.3277 19.3003 8.58191 18.0762 7.30214C16.8536 6.02403 15.2062 5.31558 13.4992 5.31558Z" fill="#2F80ED"/>
</svg>
