<svg width="32" height="32" viewBox="0 0 32 32" fill="none" xmlns="http://www.w3.org/2000/svg">
<path d="M26.926 7.27834L21.1647 27.7242C21.0686 28.0704 20.8682 28.3786 20.5909 28.6069C20.3135 28.8352 19.9725 28.9724 19.6144 29H19.4605C19.1291 28.9993 18.8047 28.905 18.5246 28.7279C18.2445 28.5508 18.0201 28.2982 17.8772 27.9992L13.952 19.7064C13.9135 19.6232 13.9013 19.5301 13.917 19.4397C13.9327 19.3493 13.9756 19.2659 14.04 19.2005L19.6804 13.5584C19.7687 13.4784 19.8398 13.3812 19.8894 13.2729C19.9391 13.1645 19.9662 13.0472 19.9691 12.928C19.972 12.8089 19.9507 12.6904 19.9065 12.5797C19.8622 12.469 19.796 12.3685 19.7117 12.2842C19.6275 12.1999 19.527 12.1336 19.4163 12.0894C19.3057 12.0451 19.1872 12.0238 19.0681 12.0268C18.949 12.0297 18.8317 12.0568 18.7234 12.1065C18.6151 12.1561 18.518 12.2272 18.4379 12.3156L12.7976 17.9687C12.7322 18.0331 12.6488 18.076 12.5584 18.0918C12.4681 18.1075 12.3751 18.0952 12.2918 18.0567L4.04567 14.1523C3.72292 13.9998 3.45195 13.756 3.2663 13.451C3.08065 13.1461 2.98847 12.7934 3.00115 12.4366C3.02062 12.0692 3.15542 11.7173 3.38638 11.431C3.61733 11.1446 3.93268 10.9385 4.28755 10.8418L24.771 5.06768C25.1293 4.96533 25.5108 4.97941 25.8605 5.10789C26.2102 5.23637 26.5102 5.47261 26.7171 5.78257C26.8559 6.00283 26.9463 6.25011 26.9823 6.50798C27.0184 6.76586 26.9991 7.02845 26.926 7.27834Z" fill="white"/>
</svg>
