<svg width="48" height="48" viewBox="0 0 48 48" fill="none" xmlns="http://www.w3.org/2000/svg">
<path fill-rule="evenodd" clip-rule="evenodd" d="M8.37872 5.37868C8.94133 4.81607 9.70439 4.5 10.5 4.5H28.5C28.8979 4.5 29.2794 4.65804 29.5607 4.93934L40.0607 15.4393L40.0767 15.4556C40.3387 15.7257 40.5 16.094 40.5 16.5V24C40.5 24.8284 39.8285 25.5 39 25.5C38.1716 25.5 37.5 24.8284 37.5 24V18H28.5C27.6716 18 27 17.3284 27 16.5V7.5L10.5 7.5L10.5 24C10.5 24.8284 9.82847 25.5 9.00004 25.5C8.17161 25.5 7.50004 24.8284 7.50004 24V7.5C7.50004 6.70435 7.81611 5.94129 8.37872 5.37868ZM30 9.62132L35.3787 15H30V9.62132Z" fill="#2F80ED"/>
<path fill-rule="evenodd" clip-rule="evenodd" d="M9.00004 30C8.17161 30 7.50004 30.6716 7.50004 31.5V40.5C7.50004 41.3284 8.17161 42 9.00004 42C9.82847 42 10.5 41.3284 10.5 40.5V39H12C13.1935 39 14.3381 38.5259 15.182 37.682C16.0259 36.8381 16.5 35.6935 16.5 34.5C16.5 33.3065 16.0259 32.1619 15.182 31.318C14.3381 30.4741 13.1935 30 12 30H9.00004ZM13.0607 35.5607C12.7794 35.842 12.3979 36 12 36H10.5V33H12C12.3979 33 12.7794 33.158 13.0607 33.4393C13.342 33.7206 13.5 34.1022 13.5 34.5C13.5 34.8978 13.342 35.2794 13.0607 35.5607Z" fill="#2F80ED"/>
<path d="M33.75 31.5C33.75 30.6716 34.4216 30 35.25 30H40.5C41.3285 30 42 30.6716 42 31.5C42 32.3284 41.3285 33 40.5 33H36.75V35.25H39.75C40.5785 35.25 41.25 35.9216 41.25 36.75C41.25 37.5784 40.5785 38.25 39.75 38.25H36.75V40.5C36.75 41.3284 36.0785 42 35.25 42C34.4216 42 33.75 41.3284 33.75 40.5V31.5Z" fill="#2F80ED"/>
<path fill-rule="evenodd" clip-rule="evenodd" d="M19.875 31.5C19.875 30.6716 20.5466 30 21.375 30H24C25.5913 30 27.1175 30.6321 28.2427 31.7574C29.3679 32.8826 30 34.4087 30 36C30 37.5913 29.3679 39.1174 28.2427 40.2426C27.1175 41.3679 25.5913 42 24 42H21.375C20.5466 42 19.875 41.3284 19.875 40.5V31.5ZM26.1214 33.8787C25.5588 33.3161 24.7957 33 24 33H22.875V39H24C24.7957 39 25.5588 38.6839 26.1214 38.1213C26.684 37.5587 27 36.7957 27 36C27 35.2043 26.684 34.4413 26.1214 33.8787Z" fill="#2F80ED"/>
</svg>
