<svg width="27" height="27" viewBox="0 0 27 27" fill="none" xmlns="http://www.w3.org/2000/svg">
<path d="M16.1383 3.12722C15.5354 3.06768 14.9984 3.50814 14.9389 4.11099C14.8794 4.71385 15.3198 5.25082 15.9227 5.31035C17.6444 5.48036 19.2311 6.16446 20.428 7.22708C21.6227 8.2877 22.3538 9.65622 22.536 11.0979C22.612 11.6989 23.1608 12.1245 23.7618 12.0485C24.3628 11.9725 24.7884 11.4237 24.7124 10.8227C24.4591 8.81891 23.4496 6.976 21.8845 5.58654C20.3216 4.19906 18.2932 3.34002 16.1383 3.12722Z" fill="#2F80ED"/>
<path d="M16.2179 6.53427C15.621 6.43075 15.0532 6.8307 14.9497 7.42758C14.8462 8.02446 15.2462 8.59224 15.843 8.69575C16.5859 8.82459 17.253 9.1452 17.7643 9.59967C18.2742 10.053 18.6027 10.6146 18.7321 11.2039C18.862 11.7956 19.4469 12.17 20.0386 12.0402C20.6303 11.9103 21.0047 11.3253 20.8748 10.7336C20.6401 9.66433 20.0561 8.70167 19.2217 7.96005C18.3887 7.21959 17.3409 6.72903 16.2179 6.53427Z" fill="#2F80ED"/>
<path fill-rule="evenodd" clip-rule="evenodd" d="M10.5835 4.69738C10.0574 4.22434 9.37646 3.96004 8.66581 3.96575L5.997 3.96575C5.58996 3.96615 5.18893 4.05524 4.81994 4.22565C4.45112 4.39598 4.12396 4.64303 3.85753 4.94819C3.59122 5.25321 3.39104 5.60995 3.26713 5.99461C3.14324 6.3792 3.09762 6.78529 3.1324 7.18767L3.13394 7.20406C3.44282 10.2452 4.43236 13.1704 6.02535 15.7428C7.47393 18.1249 9.40835 20.149 11.6944 21.6687C14.1518 23.3339 16.9519 24.3758 19.8702 24.7073L19.8908 24.7095C20.2973 24.7479 20.7063 24.697 21.0909 24.561C21.4753 24.425 21.8248 24.2079 22.1182 23.9264C22.4115 23.6451 22.6425 23.3057 22.7989 22.9316C22.8366 22.8416 22.862 22.7469 22.8746 22.6502C23.0331 21.4343 23.0331 20.053 23.033 18.9932V18.9717C23.0465 18.2648 22.8132 17.5702 22.3665 17.019C21.9158 16.4629 21.2763 16.0892 20.5639 15.9841L20.5537 15.9827C19.7844 15.8766 19.0285 15.6798 18.3003 15.3958C17.779 15.1913 17.2102 15.1465 16.6631 15.2685C16.116 15.3905 15.6203 15.6725 15.2322 16.0738L15.228 16.0782L14.7201 16.6092C13.2004 15.5634 11.9008 14.1966 10.9064 12.5929L11.468 12.0057L11.4722 12.0013C11.8553 11.5962 12.1146 11.0902 12.2257 10.5455C12.3367 10.0013 12.2965 9.43517 12.1088 8.91226C11.8343 8.14279 11.6436 7.34276 11.5408 6.52747L11.5395 6.5178C11.4451 5.81934 11.1099 5.17068 10.5835 4.69738ZM8.68205 6.15944C8.83382 6.15788 8.9887 6.21357 9.1167 6.32866C9.24514 6.44415 9.33778 6.61277 9.36505 6.80797C9.48794 7.77874 9.71532 8.7324 10.0431 9.65087L10.044 9.65327C10.0956 9.79682 10.1072 9.95491 10.0762 10.107C10.0454 10.2581 9.9751 10.3909 9.88 10.4921L8.75116 11.6724C8.42142 12.0171 8.35232 12.5355 8.58024 12.9546C9.94045 15.4557 11.9247 17.533 14.3287 18.9622C14.7677 19.2232 15.3288 19.1466 15.6819 18.7775L16.8091 17.599L16.8107 17.5973C16.9067 17.4987 17.022 17.4361 17.1406 17.4096C17.2594 17.3832 17.3831 17.3925 17.4992 17.4381L17.5017 17.4391C18.3877 17.7847 19.3088 18.025 20.2474 18.1549C20.3993 18.1783 20.5487 18.2602 20.6622 18.4002C20.7775 18.5426 20.8444 18.7324 20.8396 18.9341C20.8394 18.9428 20.8393 18.9515 20.8393 18.9601C20.8393 19.9963 20.8378 21.1699 20.7206 22.192C20.686 22.2488 20.6452 22.2996 20.5996 22.3433C20.5274 22.4125 20.4452 22.4624 20.3596 22.4927C20.2766 22.522 20.1903 22.5331 20.1051 22.5262C17.5469 22.2334 15.0864 21.3181 12.9212 19.85L12.9126 19.8442C10.8967 18.5049 9.18349 16.7152 7.89758 14.5994L7.89265 14.5913C6.47753 12.3074 5.59439 9.70424 5.31745 6.99213C5.30877 6.88156 5.32186 6.77079 5.35521 6.66725C5.38921 6.56171 5.44284 6.46799 5.51007 6.39099C5.57719 6.31411 5.656 6.25593 5.73972 6.21727C5.82316 6.17873 5.91121 6.15964 5.99877 6.1595H8.67076L8.68205 6.15944Z" fill="#2F80ED"/>
</svg>
