<svg width="49" height="48" viewBox="0 0 49 48" fill="none" xmlns="http://www.w3.org/2000/svg">
<path opacity="0.2" d="M39.5 7.5H33.5C32.6716 7.5 32 8.17157 32 9V15C32 15.8284 32.6716 16.5 33.5 16.5H39.5C40.3284 16.5 41 15.8284 41 15V9C41 8.17157 40.3284 7.5 39.5 7.5Z" fill="#2F80ED"/>
<path opacity="0.2" d="M15.5 7.5H9.5C8.67157 7.5 8 8.17157 8 9V15C8 15.8284 8.67157 16.5 9.5 16.5H15.5C16.3284 16.5 17 15.8284 17 15V9C17 8.17157 16.3284 7.5 15.5 7.5Z" fill="#2F80ED"/>
<path opacity="0.2" d="M39.5 31.5H33.5C32.6716 31.5 32 32.1716 32 33V39C32 39.8284 32.6716 40.5 33.5 40.5H39.5C40.3284 40.5 41 39.8284 41 39V33C41 32.1716 40.3284 31.5 39.5 31.5Z" fill="#2F80ED"/>
<path opacity="0.2" d="M15.5 31.5H9.5C8.67157 31.5 8 32.1716 8 33V39C8 39.8284 8.67157 40.5 9.5 40.5H15.5C16.3284 40.5 17 39.8284 17 39V33C17 32.1716 16.3284 31.5 15.5 31.5Z" fill="#2F80ED"/>
<path d="M39.5 7.5H33.5C32.6716 7.5 32 8.17157 32 9V15C32 15.8284 32.6716 16.5 33.5 16.5H39.5C40.3284 16.5 41 15.8284 41 15V9C41 8.17157 40.3284 7.5 39.5 7.5Z" stroke="#2F80ED" stroke-width="3" stroke-linecap="round" stroke-linejoin="round"/>
<path d="M15.5 7.5H9.5C8.67157 7.5 8 8.17157 8 9V15C8 15.8284 8.67157 16.5 9.5 16.5H15.5C16.3284 16.5 17 15.8284 17 15V9C17 8.17157 16.3284 7.5 15.5 7.5Z" stroke="#2F80ED" stroke-width="3" stroke-linecap="round" stroke-linejoin="round"/>
<path d="M39.5 31.5H33.5C32.6716 31.5 32 32.1716 32 33V39C32 39.8284 32.6716 40.5 33.5 40.5H39.5C40.3284 40.5 41 39.8284 41 39V33C41 32.1716 40.3284 31.5 39.5 31.5Z" stroke="#2F80ED" stroke-width="3" stroke-linecap="round" stroke-linejoin="round"/>
<path d="M15.5 31.5H9.5C8.67157 31.5 8 32.1716 8 33V39C8 39.8284 8.67157 40.5 9.5 40.5H15.5C16.3284 40.5 17 39.8284 17 39V33C17 32.1716 16.3284 31.5 15.5 31.5Z" stroke="#2F80ED" stroke-width="3" stroke-linecap="round" stroke-linejoin="round"/>
<path d="M12.5 31.5V16.5" stroke="#2F80ED" stroke-width="3" stroke-linecap="round" stroke-linejoin="round"/>
<path d="M32 36H17" stroke="#2F80ED" stroke-width="3" stroke-linecap="round" stroke-linejoin="round"/>
<path d="M36.5 16.5V31.5" stroke="#2F80ED" stroke-width="3" stroke-linecap="round" stroke-linejoin="round"/>
<path d="M17 12H32" stroke="#2F80ED" stroke-width="3" stroke-linecap="round" stroke-linejoin="round"/>
</svg>
