<svg width="70" height="55" viewBox="0 0 70 55" fill="none" xmlns="http://www.w3.org/2000/svg">
<path d="M18.5696 53.5418C16.9736 54.1712 15.146 54.4335 13.0868 54.3286C11.0275 54.2237 9.12266 53.6991 7.37227 52.7549C5.67337 51.8107 4.28336 50.6043 3.20224 49.1355C-1.99743 42.054 -0.864833 32.3498 6.60004 20.0227C9.94637 14.5674 13.1382 10.3971 16.1757 7.51209C21.3239 2.68619 24.5672 0.299465 25.9058 0.35192C28.8917 0.404376 30.7451 1.34857 31.4658 3.18452C30.7965 3.81398 29.9986 4.70572 29.0719 5.85974L26.2146 9.7939C20.5516 17.7147 17.437 24.1142 16.8707 28.9926C21.8644 29.8319 25.1078 32.612 26.6008 37.333C27.6819 40.5853 27.4245 43.8375 25.8285 47.0897C24.3356 50.1846 21.9159 52.3353 18.5696 53.5418ZM57.1038 53.5418C55.5078 54.1712 53.6802 54.4335 51.621 54.3286C49.5617 54.2237 47.6569 53.6991 45.9065 52.7549C44.2076 51.8107 42.8176 50.6043 41.7364 49.1355C36.5368 42.054 37.6694 32.3498 45.1342 20.0227C48.4806 14.5674 51.6724 10.3971 54.7099 7.51209C59.8581 2.68619 63.1014 0.299465 64.4399 0.35192C67.4259 0.404376 69.2793 1.34857 70 3.18452C69.3307 3.81398 68.5328 4.70572 67.6061 5.85974L64.7488 9.7939C59.0858 17.7147 55.9712 24.1142 55.4049 28.9926C60.3986 29.8319 63.642 32.612 65.135 37.333C66.2161 40.5853 65.9587 43.8375 64.3627 47.0897C62.8698 50.1846 60.4501 52.3353 57.1038 53.5418Z" fill="#2F80ED"/>
</svg>
