<svg width="64" height="64" viewBox="0 0 64 64" fill="none" xmlns="http://www.w3.org/2000/svg">
<path opacity="0.2" d="M23.525 46.1501C20.675 54.6251 9.375 54.6251 9.375 54.6251C9.375 54.6251 9.375 43.3251 17.85 40.4751L23.525 46.1501Z" fill="#2F80ED"/>
<path opacity="0.2" d="M46.15 29.175V45.3251C46.1425 45.8526 45.9268 46.3558 45.55 46.7251L37.475 54.8251C37.2188 55.081 36.898 55.2625 36.5467 55.3503C36.1954 55.4381 35.8269 55.429 35.4804 55.3237C35.1339 55.2185 34.8225 55.0212 34.5794 54.7529C34.3363 54.4845 34.1706 54.1552 34.1 53.8001L32 43.3251L46.15 29.175Z" fill="#2F80ED"/>
<path opacity="0.2" d="M34.8248 17.8501H18.6748C18.1473 17.8576 17.6441 18.0733 17.2748 18.4501L9.17482 26.5251C8.91893 26.7813 8.73738 27.1021 8.64956 27.4534C8.56174 27.8047 8.57093 28.1732 8.67615 28.5197C8.78138 28.8662 8.97868 29.1776 9.24703 29.4207C9.51537 29.6638 9.84468 29.8295 10.1998 29.9001L20.6748 32.0001L34.8248 17.8501Z" fill="#2F80ED"/>
<path d="M23.525 46.1501C20.675 54.6251 9.375 54.6251 9.375 54.6251C9.375 54.6251 9.375 43.3251 17.85 40.4751" stroke="#2F80ED" stroke-width="3" stroke-linecap="round" stroke-linejoin="round"/>
<path d="M48.9758 26.35L32.0008 43.325L20.6758 32L37.6508 15.0249C44.0758 8.59995 50.5008 8.67495 53.2508 9.07495C53.6751 9.13156 54.069 9.32625 54.3717 9.62896C54.6745 9.93168 54.8691 10.3256 54.9258 10.7499C55.3258 13.4999 55.4008 19.925 48.9758 26.35Z" stroke="#2F80ED" stroke-width="3" stroke-linecap="round" stroke-linejoin="round"/>
<path d="M46.15 29.175V45.3251C46.1425 45.8526 45.9268 46.3558 45.55 46.7251L37.475 54.8251C37.2188 55.081 36.898 55.2625 36.5467 55.3503C36.1954 55.4381 35.8269 55.429 35.4804 55.3237C35.1339 55.2185 34.8225 55.0212 34.5794 54.7529C34.3363 54.4845 34.1706 54.1552 34.1 53.8001L32 43.3251" stroke="#2F80ED" stroke-width="3" stroke-linecap="round" stroke-linejoin="round"/>
<path d="M34.8248 17.8501H18.6748C18.1473 17.8576 17.6441 18.0733 17.2748 18.4501L9.17482 26.5251C8.91893 26.7813 8.73738 27.1021 8.64956 27.4534C8.56174 27.8047 8.57093 28.1732 8.67615 28.5197C8.78138 28.8662 8.97868 29.1776 9.24703 29.4207C9.51537 29.6638 9.84468 29.8295 10.1998 29.9001L20.6748 32.0001" stroke="#2F80ED" stroke-width="3" stroke-linecap="round" stroke-linejoin="round"/>
</svg>
