<svg width="40" height="40" viewBox="0 0 40 40" fill="none" xmlns="http://www.w3.org/2000/svg">
<rect width="40" height="40" rx="20" fill="white"/>
<path d="M26.0303 15.0304C26.3232 14.7375 26.3232 14.2626 26.0303 13.9697C25.7374 13.6768 25.2626 13.6768 24.9697 13.9697L20 18.9394L15.0303 13.9697C14.7374 13.6768 14.2626 13.6768 13.9697 13.9697C13.6768 14.2626 13.6768 14.7375 13.9697 15.0304L18.9393 20.0001L13.9697 24.9697C13.6768 25.2626 13.6768 25.7375 13.9697 26.0304C14.2626 26.3233 14.7374 26.3233 15.0303 26.0304L20 21.0607L24.9697 26.0304C25.2626 26.3233 25.7374 26.3233 26.0303 26.0304C26.3232 25.7375 26.3232 25.2626 26.0303 24.9697L21.0607 20.0001L26.0303 15.0304Z" fill="#6E7582"/>
</svg>
