<svg width="64" height="64" viewBox="0 0 64 64" fill="none" xmlns="http://www.w3.org/2000/svg">
<path opacity="0.2" d="M54 14H40V30H54V14Z" fill="#2F80ED"/>
<path opacity="0.2" d="M24 30H10V52C10 52.5304 10.2107 53.0391 10.5858 53.4142C10.9609 53.7893 11.4696 54 12 54H22C22.5304 54 23.0391 53.7893 23.4142 53.4142C23.7893 53.0391 24 52.5304 24 52V30Z" fill="#2F80ED"/>
<path d="M10 14H54V44C54 44.5304 53.7893 45.0391 53.4142 45.4142C53.0391 45.7893 52.5304 46 52 46H42C41.4696 46 40.9609 45.7893 40.5858 45.4142C40.2107 45.0391 40 44.5304 40 44V38H24V52C24 52.5304 23.7893 53.0391 23.4142 53.4142C23.0391 53.7893 22.5304 54 22 54H12C11.4696 54 10.9609 53.7893 10.5858 53.4142C10.2107 53.0391 10 52.5304 10 52V14Z" stroke="#2F80ED" stroke-width="3" stroke-linecap="round" stroke-linejoin="round"/>
<path d="M24 30H10" stroke="#2F80ED" stroke-width="3" stroke-linecap="round" stroke-linejoin="round"/>
<path d="M24 14V38" stroke="#2F80ED" stroke-width="3" stroke-linecap="round" stroke-linejoin="round"/>
<path d="M40 30H54" stroke="#2F80ED" stroke-width="3" stroke-linecap="round" stroke-linejoin="round"/>
<path d="M40 14V38" stroke="#2F80ED" stroke-width="3" stroke-linecap="round" stroke-linejoin="round"/>
</svg>
