<svg width="64" height="64" viewBox="0 0 64 64" fill="none" xmlns="http://www.w3.org/2000/svg">
<path opacity="0.2" d="M32 45C37.5228 45 42 40.5228 42 35C42 29.4772 37.5228 25 32 25C26.4772 25 22 29.4772 22 35C22 40.5228 26.4772 45 32 45Z" fill="#2F80ED"/>
<path opacity="0.2" d="M15 29C19.4183 29 23 25.4183 23 21C23 16.5817 19.4183 13 15 13C10.5817 13 7 16.5817 7 21C7 25.4183 10.5817 29 15 29Z" fill="#2F80ED"/>
<path opacity="0.2" d="M49 29C53.4183 29 57 25.4183 57 21C57 16.5817 53.4183 13 49 13C44.5817 13 41 16.5817 41 21C41 25.4183 44.5817 29 49 29Z" fill="#2F80ED"/>
<path d="M32 45C37.5228 45 42 40.5228 42 35C42 29.4772 37.5228 25 32 25C26.4772 25 22 29.4772 22 35C22 40.5228 26.4772 45 32 45Z" stroke="#2F80ED" stroke-width="3" stroke-linecap="round" stroke-linejoin="round"/>
<path d="M49 29C51.3294 28.9961 53.6274 29.5366 55.7109 30.5783C57.7943 31.62 59.6055 33.1342 61 35" stroke="#2F80ED" stroke-width="3" stroke-linecap="round" stroke-linejoin="round"/>
<path d="M3 35C4.3945 33.1342 6.2057 31.62 8.28915 30.5783C10.3726 29.5366 12.6706 28.9961 15 29" stroke="#2F80ED" stroke-width="3" stroke-linecap="round" stroke-linejoin="round"/>
<path d="M17.6016 54C18.9186 51.3027 20.9668 49.0296 23.5127 47.4395C26.0586 45.8495 28.9999 45.0064 32.0016 45.0064C35.0032 45.0064 37.9445 45.8495 40.4904 47.4395C43.0363 49.0296 45.0845 51.3027 46.4015 54" stroke="#2F80ED" stroke-width="3" stroke-linecap="round" stroke-linejoin="round"/>
<path d="M15.0003 29C13.4819 29.0015 11.9944 28.5709 10.7117 27.7585C9.42892 26.946 8.40386 25.7853 7.75627 24.412C7.10868 23.0386 6.86531 21.5093 7.0546 20.0027C7.24388 18.4962 7.85799 17.0746 8.82519 15.9041C9.79239 14.7336 11.0727 13.8625 12.5166 13.3927C13.9604 12.9228 15.5082 12.8735 16.979 13.2506C18.4499 13.6278 19.783 14.4156 20.8227 15.5223C21.8623 16.6289 22.5656 18.0085 22.8503 19.5" stroke="#2F80ED" stroke-width="3" stroke-linecap="round" stroke-linejoin="round"/>
<path d="M41.1484 19.5C41.4331 18.0085 42.1364 16.6289 43.1761 15.5223C44.2157 14.4156 45.5489 13.6278 47.0197 13.2506C48.4905 12.8735 50.0383 12.9228 51.4821 13.3927C52.926 13.8625 54.2063 14.7336 55.1735 15.9041C56.1407 17.0746 56.7549 18.4962 56.9441 20.0027C57.1334 21.5093 56.89 23.0386 56.2425 24.412C55.5949 25.7853 54.5698 26.946 53.2871 27.7585C52.0043 28.5709 50.5168 29.0015 48.9984 29" stroke="#2F80ED" stroke-width="3" stroke-linecap="round" stroke-linejoin="round"/>
</svg>
