<svg width="56" height="56" viewBox="0 0 56 56" fill="none" xmlns="http://www.w3.org/2000/svg">
<path d="M0 8C0 3.58172 3.58172 0 8 0H48C52.4183 0 56 3.58172 56 8V48C56 52.4183 52.4183 56 48 56H8C3.58172 56 0 52.4183 0 48V8Z" fill="#2F80ED" fill-opacity="0.05"/>
<path fill-rule="evenodd" clip-rule="evenodd" d="M17 19.5C16.1716 19.5 15.5 20.1716 15.5 21C15.5 21.8284 16.1716 22.5 17 22.5H39C39.8284 22.5 40.5 21.8284 40.5 21C40.5 20.1716 39.8284 19.5 39 19.5H17ZM15.5 28C15.5 27.1716 16.1716 26.5 17 26.5H39C39.8284 26.5 40.5 27.1716 40.5 28C40.5 28.8284 39.8284 29.5 39 29.5H17C16.1716 29.5 15.5 28.8284 15.5 28ZM15.5 35C15.5 34.1716 16.1716 33.5 17 33.5H39C39.8284 33.5 40.5 34.1716 40.5 35C40.5 35.8284 39.8284 36.5 39 36.5H17C16.1716 36.5 15.5 35.8284 15.5 35Z" fill="#2F80ED"/>
</svg>
