<svg width="306" height="60" viewBox="0 0 306 60" fill="none" xmlns="http://www.w3.org/2000/svg">
<path d="M102.701 43.6495C102.701 43.8734 102.519 44.0549 102.293 44.0549H96.6822C96.5374 44.0549 96.4034 43.9786 96.3302 43.8544L85.1851 24.9501V43.6495C85.1851 43.8734 85.0024 44.0549 84.7771 44.0549H79.7476C79.5223 44.0549 79.3396 43.8734 79.3396 43.6495V15.4388C79.3396 15.2148 79.5223 15.0333 79.7476 15.0333H85.3585C85.5034 15.0333 85.6374 15.1097 85.7106 15.234L96.8557 34.1584V15.4388C96.8557 15.2148 97.0384 15.0333 97.2638 15.0333H102.293C102.519 15.0333 102.701 15.2148 102.701 15.4388V43.6495Z" fill="white"/>
<path d="M128.303 33.0251C128.303 34.6442 128.011 36.1553 127.428 37.5585C126.844 38.9481 126.049 40.1557 125.045 41.1811C124.04 42.193 122.858 42.9958 121.501 43.5894C120.156 44.1696 118.71 44.4597 117.162 44.4597C115.628 44.4597 114.182 44.1696 112.824 43.5894C111.48 42.9958 110.298 42.193 109.28 41.1811C108.275 40.1557 107.481 38.9481 106.897 37.5585C106.313 36.1553 106.021 34.6442 106.021 33.0251C106.021 31.3791 106.313 29.8544 106.897 28.4513C107.481 27.0481 108.275 25.8405 109.28 24.8286C110.298 23.8032 111.48 23.0004 112.824 22.4203C114.182 21.8401 115.628 21.55 117.162 21.55C118.71 21.55 120.156 21.8266 121.501 22.3798C122.858 22.9195 124.04 23.6953 125.045 24.7072C126.049 25.7056 126.844 26.9132 127.428 28.3298C128.011 29.733 128.303 31.2981 128.303 33.0251ZM122.702 33.0251C122.702 32.1346 122.553 31.3318 122.254 30.6167C121.969 29.8882 121.575 29.2675 121.073 28.7548C120.57 28.2286 119.98 27.8306 119.301 27.5608C118.636 27.2774 117.923 27.1358 117.162 27.1358C116.402 27.1358 115.682 27.2774 115.003 27.5608C114.338 27.8306 113.754 28.2286 113.252 28.7548C112.763 29.2675 112.376 29.8882 112.091 30.6167C111.806 31.3318 111.663 32.1346 111.663 33.0251C111.663 33.8616 111.806 34.6374 112.091 35.3525C112.376 36.0676 112.763 36.6882 113.252 37.2144C113.754 37.7406 114.338 38.1589 115.003 38.4692C115.682 38.766 116.402 38.9144 117.162 38.9144C117.923 38.9144 118.636 38.7727 119.301 38.4894C119.98 38.2061 120.57 37.8081 121.073 37.2954C121.575 36.7827 121.969 36.162 122.254 35.4334C122.553 34.7049 122.702 33.9021 122.702 33.0251Z" fill="white"/>
<path d="M136.939 43.6495C136.939 43.8734 136.757 44.0549 136.531 44.0549H131.787C131.562 44.0549 131.379 43.8734 131.379 43.6495V22.7852C131.379 22.5613 131.562 22.3798 131.787 22.3798H132.512C132.644 22.3798 132.769 22.4435 132.845 22.5508L134.556 24.9501C135.452 24.1405 136.471 23.5199 137.611 23.0881C138.752 22.6429 139.933 22.4203 141.155 22.4203H145.656C145.881 22.4203 146.064 22.6018 146.064 22.8257V27.5196C146.064 27.7436 145.881 27.9251 145.656 27.9251H141.155C140.571 27.9251 140.022 28.033 139.506 28.2489C138.99 28.4648 138.541 28.7616 138.161 29.1394C137.781 29.5171 137.482 29.9624 137.265 30.4751C137.048 30.9878 136.939 31.5342 136.939 32.1144V43.6495Z" fill="white"/>
<path d="M169.324 43.6495C169.324 43.8734 169.141 44.0549 168.916 44.0549H168.188C168.057 44.0549 167.934 43.9923 167.857 43.8866L165.82 41.0799C165.291 41.5521 164.727 41.9974 164.13 42.4156C163.546 42.8204 162.928 43.1779 162.277 43.4882C161.625 43.7851 160.953 44.0212 160.26 44.1966C159.581 44.372 158.889 44.4597 158.183 44.4597C156.648 44.4597 155.202 44.1763 153.844 43.6097C152.5 43.0295 151.319 42.2335 150.3 41.2216C149.296 40.1962 148.501 38.9886 147.917 37.5989C147.333 36.1957 147.042 34.6711 147.042 33.0251C147.042 31.3925 147.333 29.8747 147.917 28.4715C148.501 27.0683 149.296 25.854 150.3 24.8286C151.319 23.8032 152.5 23.0004 153.844 22.4203C155.202 21.8401 156.648 21.55 158.183 21.55C158.671 21.55 159.174 21.5905 159.69 21.6715C160.219 21.7524 160.729 21.8873 161.217 22.0762C161.72 22.2516 162.188 22.4877 162.623 22.7846C163.057 23.0814 163.424 23.4457 163.723 23.8774V14.1638C163.723 13.9398 163.905 13.7583 164.131 13.7583H168.916C169.141 13.7583 169.324 13.9398 169.324 14.1638V43.6495ZM163.723 33.0251C163.723 32.2695 163.573 31.541 163.275 30.8394C162.989 30.1243 162.596 29.4969 162.093 28.9572C161.591 28.404 161 27.9655 160.321 27.6417C159.656 27.3044 158.943 27.1358 158.183 27.1358C157.422 27.1358 156.703 27.2707 156.024 27.5405C155.358 27.8104 154.774 28.2017 154.272 28.7144C153.783 29.2136 153.396 29.8275 153.111 30.556C152.826 31.2846 152.683 32.1076 152.683 33.0251C152.683 33.8211 152.826 34.5767 153.111 35.2918C153.396 36.0069 153.783 36.6342 154.272 37.1739C154.774 37.7136 155.358 38.1386 156.024 38.4489C156.703 38.7593 157.422 38.9144 158.183 38.9144C158.943 38.9144 159.656 38.7525 160.321 38.4287C161 38.0914 161.591 37.6529 162.093 37.1132C162.596 36.56 162.989 35.9326 163.275 35.2311C163.573 34.516 163.723 33.7807 163.723 33.0251Z" fill="white"/>
<path d="M209.265 29.5441C209.265 30.8798 209.088 32.1683 208.735 33.4096C208.396 34.6374 207.907 35.791 207.269 36.8704C206.63 37.9362 205.87 38.9144 204.987 39.8049C204.105 40.6819 203.12 41.4374 202.034 42.0716C200.948 42.7057 199.78 43.1982 198.531 43.549C197.295 43.8863 196.005 44.0549 194.661 44.0549H186.27C186.045 44.0549 185.862 43.8734 185.862 43.6495V15.4388C185.862 15.2148 186.045 15.0333 186.27 15.0333H194.661C196.005 15.0333 197.295 15.2087 198.531 15.5595C199.78 15.8968 200.948 16.3825 202.034 17.0167C203.12 17.6508 204.105 18.4131 204.987 19.3036C205.87 20.1806 206.63 21.1588 207.269 22.2381C207.907 23.304 208.396 24.4576 208.735 25.6989C209.088 26.9266 209.265 28.2084 209.265 29.5441ZM203.419 29.5441C203.419 28.3433 203.188 27.2167 202.727 26.1643C202.278 25.112 201.654 24.1945 200.853 23.4119C200.065 22.6159 199.135 21.9885 198.062 21.5298C197.003 21.0711 195.869 20.8417 194.661 20.8417H191.748V38.2466H194.661C195.869 38.2466 197.003 38.0239 198.062 37.5787C199.135 37.12 200.065 36.4993 200.853 35.7168C201.654 34.9207 202.278 33.9965 202.727 32.9441C203.188 31.8783 203.419 30.7449 203.419 29.5441Z" fill="white"/>
<path d="M219.123 16.4905C219.123 17.0032 219.021 17.4822 218.817 17.9274C218.627 18.3726 218.362 18.7639 218.023 19.1012C217.683 19.425 217.283 19.6881 216.821 19.8905C216.373 20.0794 215.891 20.1738 215.375 20.1738C214.859 20.1738 214.37 20.0794 213.908 19.8905C213.46 19.6881 213.067 19.425 212.727 19.1012C212.401 18.7639 212.136 18.3726 211.933 17.9274C211.743 17.4822 211.648 17.0032 211.648 16.4905C211.648 15.9913 211.743 15.519 211.933 15.0738C212.136 14.6151 212.401 14.2238 212.727 13.9C213.067 13.5627 213.46 13.2996 213.908 13.1107C214.37 12.9083 214.859 12.8071 215.375 12.8071C215.891 12.8071 216.373 12.9083 216.821 13.1107C217.283 13.2996 217.683 13.5627 218.023 13.9C218.362 14.2238 218.627 14.6151 218.817 15.0738C219.021 15.519 219.123 15.9913 219.123 16.4905ZM218.165 43.6495C218.165 43.8734 217.983 44.0549 217.757 44.0549H212.972C212.747 44.0549 212.564 43.8734 212.564 43.6495V22.7852C212.564 22.5613 212.747 22.3798 212.972 22.3798H217.757C217.983 22.3798 218.165 22.5613 218.165 22.7852V43.6495Z" fill="white"/>
<path d="M237.942 33.0251C237.942 32.2695 237.793 31.541 237.494 30.8394C237.209 30.1243 236.815 29.4969 236.313 28.9572C235.81 28.404 235.22 27.9655 234.541 27.6417C233.875 27.3044 233.163 27.1358 232.402 27.1358C231.642 27.1358 230.922 27.264 230.243 27.5203C229.578 27.7767 228.994 28.1544 228.492 28.6536C228.003 29.1529 227.616 29.7735 227.331 30.5156C227.046 31.2441 226.903 32.0806 226.903 33.0251C226.903 33.9291 227.046 34.7453 227.331 35.4739C227.616 36.189 228.003 36.8029 228.492 37.3156C228.994 37.8283 229.578 38.2263 230.243 38.5096C230.922 38.7795 231.642 38.9144 232.402 38.9144C233.163 38.9144 233.875 38.7525 234.541 38.4287C235.22 38.0914 235.81 37.6529 236.313 37.1132C236.815 36.56 237.209 35.9326 237.494 35.2311C237.793 34.516 237.942 33.7807 237.942 33.0251ZM243.543 41.3228C243.543 42.8474 243.251 44.2775 242.667 45.6133C242.084 46.949 241.282 48.1161 240.264 49.1145C239.259 50.1129 238.078 50.9022 236.72 51.4823C235.376 52.0625 233.937 52.3526 232.402 52.3526L230.014 52.3179C229.791 52.3147 229.612 52.1342 229.612 51.9126V47.1985C229.612 46.9723 229.798 46.7898 230.026 46.7932L232.361 46.8275C233.23 46.8275 233.971 46.7129 234.582 46.4835C235.193 46.2676 235.709 45.9641 236.129 45.5728C236.55 45.195 236.883 44.7565 237.127 44.2573C237.385 43.7581 237.589 43.2319 237.738 42.6787C237.521 43.0295 237.209 43.3196 236.802 43.549C236.394 43.7648 235.939 43.9402 235.437 44.0752C234.948 44.2236 234.432 44.3248 233.889 44.3787C233.359 44.4327 232.864 44.4597 232.402 44.4597C230.868 44.4597 229.422 44.1966 228.064 43.6704C226.72 43.1442 225.538 42.3954 224.52 41.424C223.515 40.439 222.721 39.2382 222.137 37.8215C221.553 36.4049 221.261 34.8061 221.261 33.0251C221.261 31.3925 221.553 29.8747 222.137 28.4715C222.721 27.0683 223.515 25.854 224.52 24.8286C225.538 23.8032 226.72 23.0004 228.064 22.4203C229.422 21.8401 230.868 21.55 232.402 21.55C233.108 21.55 233.808 21.6377 234.5 21.8131C235.193 21.9885 235.865 22.2314 236.516 22.5417C237.168 22.852 237.786 23.2163 238.37 23.6346C238.967 24.0528 239.524 24.5048 240.04 24.9905L242.077 22.5659C242.154 22.4736 242.269 22.4203 242.39 22.4203H243.135C243.361 22.4203 243.543 22.6018 243.543 22.8257V41.3228Z" fill="white"/>
<path d="M254.358 16.4905C254.358 17.0032 254.257 17.4822 254.053 17.9274C253.863 18.3726 253.598 18.7639 253.259 19.1012C252.919 19.425 252.519 19.6881 252.057 19.8905C251.609 20.0794 251.127 20.1738 250.611 20.1738C250.095 20.1738 249.606 20.0794 249.144 19.8905C248.696 19.6881 248.303 19.425 247.963 19.1012C247.637 18.7639 247.372 18.3726 247.169 17.9274C246.979 17.4822 246.884 17.0032 246.884 16.4905C246.884 15.9913 246.979 15.519 247.169 15.0738C247.372 14.6151 247.637 14.2238 247.963 13.9C248.303 13.5627 248.696 13.2996 249.144 13.1107C249.606 12.9083 250.095 12.8071 250.611 12.8071C251.127 12.8071 251.609 12.9083 252.057 13.1107C252.519 13.2996 252.919 13.5627 253.259 13.9C253.598 14.2238 253.863 14.6151 254.053 15.0738C254.257 15.519 254.358 15.9913 254.358 16.4905ZM253.401 43.6495C253.401 43.8734 253.219 44.0549 252.993 44.0549H248.208C247.983 44.0549 247.8 43.8734 247.8 43.6495V22.7852C247.8 22.5613 247.983 22.3798 248.208 22.3798H252.993C253.219 22.3798 253.401 22.5613 253.401 22.7852V43.6495Z" fill="white"/>
<path d="M267.371 44.0549C266.027 44.0549 264.764 43.8053 263.583 43.3061C262.402 42.7934 261.363 42.0986 260.467 41.2216C259.584 40.3311 258.885 39.2989 258.369 38.1251C257.867 36.9513 257.615 35.6965 257.615 34.3608C257.615 26.1471 257.615 23.1057 257.615 14.1638C257.615 13.9398 257.798 13.7583 258.023 13.7583H262.747C262.973 13.7583 263.155 13.9398 263.155 14.1638V22.4203H271.179C271.405 22.4203 271.587 22.6018 271.587 22.8257V27.5196C271.587 27.7436 271.405 27.9251 271.179 27.9251H263.155V34.3608C263.155 34.941 263.264 35.4874 263.481 36.0001C263.698 36.4993 263.997 36.9378 264.377 37.3156C264.758 37.6934 265.206 37.9969 265.722 38.2263C266.238 38.4422 266.788 38.5501 267.371 38.5501H271.179C271.405 38.5501 271.587 38.7316 271.587 38.9556V43.6495C271.587 43.8734 271.405 44.0549 271.179 44.0549H267.371Z" fill="white"/>
<path d="M295.845 43.6495C295.845 43.8734 295.663 44.0549 295.437 44.0549H294.71C294.579 44.0549 294.456 43.9923 294.379 43.8866L292.342 41.0799C291.812 41.5521 291.249 41.9974 290.652 42.4156C290.068 42.8204 289.45 43.1779 288.798 43.4882C288.146 43.7851 287.474 44.0212 286.782 44.1966C286.103 44.372 285.41 44.4597 284.704 44.4597C283.17 44.4597 281.724 44.2033 280.366 43.6906C279.022 43.1779 277.84 42.4359 276.822 41.4644C275.817 40.4795 275.023 39.2787 274.439 37.862C273.855 36.4454 273.563 34.833 273.563 33.0251C273.563 31.3386 273.855 29.7937 274.439 28.3905C275.023 26.9739 275.817 25.7596 276.822 24.7477C277.84 23.7358 279.022 22.9532 280.366 22.4C281.724 21.8334 283.17 21.55 284.704 21.55C285.41 21.55 286.11 21.6377 286.802 21.8131C287.495 21.9885 288.167 22.2314 288.818 22.5417C289.47 22.852 290.088 23.2163 290.672 23.6346C291.269 24.0528 291.826 24.5048 292.342 24.9905L294.379 22.5659C294.456 22.4736 294.571 22.4203 294.692 22.4203H295.437C295.663 22.4203 295.845 22.6018 295.845 22.8257V43.6495ZM290.244 33.0251C290.244 32.2695 290.095 31.541 289.796 30.8394C289.511 30.1243 289.117 29.4969 288.615 28.9572C288.112 28.404 287.522 27.9655 286.843 27.6417C286.177 27.3044 285.465 27.1358 284.704 27.1358C283.944 27.1358 283.224 27.264 282.545 27.5203C281.88 27.7767 281.296 28.1544 280.794 28.6536C280.305 29.1529 279.918 29.7735 279.633 30.5156C279.348 31.2441 279.205 32.0806 279.205 33.0251C279.205 33.9695 279.348 34.8128 279.633 35.5549C279.918 36.2834 280.305 36.8973 280.794 37.3965C281.296 37.8958 281.88 38.2735 282.545 38.5299C283.224 38.7862 283.944 38.9144 284.704 38.9144C285.465 38.9144 286.177 38.7525 286.843 38.4287C287.522 38.0914 288.112 37.6529 288.615 37.1132C289.117 36.56 289.511 35.9326 289.796 35.2311C290.095 34.516 290.244 33.7807 290.244 33.0251Z" fill="white"/>
<path d="M305.703 43.6495C305.703 43.8734 305.521 44.0549 305.295 44.0549H300.51C300.285 44.0549 300.102 43.8734 300.102 43.6495V14.1638C300.102 13.9398 300.285 13.7583 300.51 13.7583H305.295C305.521 13.7583 305.703 13.9398 305.703 14.1638V43.6495Z" fill="white"/>
<path d="M25.4905 0.137444C26.1609 -0.253075 26.9988 0.235074 26.9988 1.01611V58.9839C26.9988 59.7649 26.1609 60.2531 25.4905 59.8626L17.6076 55.2701C17.2965 55.0889 17.1048 54.7539 17.1048 54.3915V5.60853C17.1048 5.24605 17.2965 4.91111 17.6076 4.72987L25.4905 0.137444Z" fill="#56CCF2"/>
<path d="M0.79938 45.6633C0.488278 45.4821 0.296631 45.1472 0.296631 44.7847V15.215C0.296631 14.8525 0.488278 14.5176 0.79938 14.3363L8.68234 9.74392C9.35267 9.3534 10.1906 9.84155 10.1906 10.6226V49.3771C10.1906 50.1581 9.35267 50.6463 8.68234 50.2558L0.79938 45.6633Z" fill="#56CCF2"/>
<path d="M60.2967 15.2152C60.2967 14.8527 60.1051 14.5177 59.794 14.3365L35.4211 0.137444C34.7508 -0.253075 33.9128 0.235075 33.9128 1.01611V12.6346C33.9128 13.0001 34.1077 13.3374 34.4229 13.5175L48.0715 21.3149C48.3867 21.495 48.5816 21.8323 48.5816 22.1978V37.8026C48.5816 38.1681 48.3867 38.5054 48.0715 38.6855L34.4229 46.483C34.1077 46.6631 33.9128 47.0003 33.9128 47.3659V58.9839C33.9128 59.7649 34.7508 60.2531 35.4211 59.8626L59.794 45.6635C60.1051 45.4823 60.2967 45.1473 60.2967 44.7848V15.2152Z" fill="#2F80ED"/>
</svg>
