<svg width="224" height="44" viewBox="0 0 224 44" fill="none" xmlns="http://www.w3.org/2000/svg">
<path d="M75.1087 32.0098C75.1087 32.174 74.9747 32.3071 74.8094 32.3071H70.694C70.5878 32.3071 70.4895 32.2512 70.4358 32.1601L62.2615 18.2969V32.0098C62.2615 32.174 62.1275 32.3071 61.9622 32.3071H58.2734C58.1081 32.3071 57.9741 32.174 57.9741 32.0098V11.322C57.9741 11.1577 58.1081 11.0246 58.2734 11.0246H62.3886C62.4949 11.0246 62.5933 11.0806 62.6469 11.1718L70.8213 25.0497V11.322C70.8213 11.1577 70.9553 11.0246 71.1205 11.0246H74.8094C74.9747 11.0246 75.1087 11.1577 75.1087 11.322V32.0098Z" fill="#0C131D"/>
<path d="M93.8864 24.2186C93.8864 25.4059 93.6723 26.5141 93.2441 27.5431C92.8158 28.5622 92.2332 29.4477 91.4963 30.1997C90.7593 30.9417 89.8929 31.5304 88.8969 31.9658C87.911 32.3912 86.8504 32.604 85.715 32.604C84.5897 32.604 83.529 32.3912 82.5331 31.9658C81.5472 31.5304 80.6807 30.9417 79.9338 30.1997C79.1968 29.4477 78.6142 28.5622 78.186 27.5431C77.7578 26.5141 77.5436 25.4059 77.5436 24.2186C77.5436 23.0115 77.7578 21.8935 78.186 20.8645C78.6142 19.8355 79.1968 18.9499 79.9338 18.2079C80.6807 17.4559 81.5472 16.8672 82.5331 16.4417C83.529 16.0163 84.5897 15.8036 85.715 15.8036C86.8504 15.8036 87.911 16.0064 88.8969 16.412C89.8929 16.8078 90.7593 17.3767 91.4963 18.1188C92.2332 18.851 92.8158 19.7365 93.2441 20.7754C93.6723 21.8044 93.8864 22.9521 93.8864 24.2186ZM89.7783 24.2186C89.7783 23.5656 89.6688 22.9769 89.4497 22.4525C89.2405 21.9182 88.9517 21.4631 88.5832 21.0871C88.2148 20.7012 87.7815 20.4093 87.2836 20.2114C86.7956 20.0037 86.2727 19.8998 85.715 19.8998C85.1573 19.8998 84.6295 20.0037 84.1315 20.2114C83.6436 20.4093 83.2153 20.7012 82.8468 21.0871C82.4883 21.4631 82.2045 21.9182 81.9953 22.4525C81.7862 22.9769 81.6816 23.5656 81.6816 24.2186C81.6816 24.832 81.7862 25.401 81.9953 25.9254C82.2045 26.4497 82.4883 26.9049 82.8468 27.2908C83.2153 27.6766 83.6436 27.9834 84.1315 28.2109C84.6295 28.4286 85.1573 28.5374 85.715 28.5374C86.2727 28.5374 86.7956 28.4335 87.2836 28.2258C87.7815 28.018 88.2148 27.7261 88.5832 27.3501C88.9517 26.9741 89.2405 26.519 89.4497 25.9847C89.6688 25.4504 89.7783 24.8617 89.7783 24.2186Z" fill="#0C131D"/>
<path d="M100.22 32.0098C100.22 32.174 100.086 32.3071 99.9211 32.3071H96.4414C96.2761 32.3071 96.1422 32.174 96.1422 32.0098V16.7094C96.1422 16.5452 96.2761 16.412 96.4414 16.412H96.9734C97.0704 16.412 97.1614 16.4588 97.2176 16.5375L98.4726 18.2969C99.1299 17.7032 99.8768 17.2481 100.713 16.9315C101.55 16.605 102.416 16.4417 103.313 16.4417H106.614C106.779 16.4417 106.913 16.5748 106.913 16.739V20.1813C106.913 20.3455 106.779 20.4786 106.614 20.4786H103.313C102.884 20.4786 102.481 20.5577 102.103 20.716C101.724 20.8743 101.396 21.092 101.117 21.3691C100.838 21.6461 100.619 21.9726 100.459 22.3486C100.3 22.7246 100.22 23.1253 100.22 23.5507V32.0098Z" fill="#0C131D"/>
<path d="M123.973 32.0098C123.973 32.174 123.839 32.3071 123.673 32.3071H123.14C123.044 32.3071 122.953 32.2612 122.897 32.1837L121.403 30.1255C121.015 30.4718 120.602 30.7983 120.163 31.105C119.735 31.4018 119.282 31.664 118.804 31.8916C118.326 32.1093 117.833 32.2824 117.325 32.411C116.827 32.5396 116.319 32.604 115.801 32.604C114.676 32.604 113.615 32.3962 112.619 31.9806C111.633 31.5552 110.767 30.9714 110.02 30.2293C109.283 29.4774 108.701 28.5918 108.272 27.5727C107.844 26.5437 107.63 25.4257 107.63 24.2186C107.63 23.0214 107.844 21.9083 108.272 20.8793C108.701 19.8503 109.283 18.9598 110.02 18.2079C110.767 17.4559 111.633 16.8672 112.619 16.4417C113.615 16.0163 114.676 15.8036 115.801 15.8036C116.16 15.8036 116.528 15.8332 116.907 15.8926C117.295 15.952 117.669 16.0509 118.027 16.1894C118.396 16.3181 118.739 16.4912 119.058 16.7089C119.377 16.9265 119.645 17.1937 119.865 17.5103V10.3869C119.865 10.2227 119.999 10.0896 120.164 10.0896H123.673C123.839 10.0896 123.973 10.2227 123.973 10.3869V32.0098ZM119.865 24.2186C119.865 23.6645 119.755 23.1302 119.536 22.6157C119.327 22.0913 119.038 21.6313 118.67 21.2355C118.301 20.8298 117.868 20.5083 117.37 20.2708C116.882 20.0234 116.359 19.8998 115.801 19.8998C115.244 19.8998 114.716 19.9987 114.218 20.1966C113.73 20.3945 113.302 20.6814 112.933 21.0574C112.575 21.4235 112.291 21.8737 112.082 22.408C111.872 22.9422 111.768 23.5458 111.768 24.2186C111.768 24.8024 111.872 25.3564 112.082 25.8808C112.291 26.4052 112.575 26.8653 112.933 27.2611C113.302 27.6568 113.73 27.9685 114.218 28.1961C114.716 28.4236 115.244 28.5374 115.801 28.5374C116.359 28.5374 116.882 28.4187 117.37 28.1812C117.868 27.9339 118.301 27.6123 118.67 27.2166C119.038 26.8109 119.327 26.3508 119.536 25.8363C119.755 25.3119 119.865 24.7727 119.865 24.2186Z" fill="#0C131D"/>
<path d="M153.267 21.6659C153.267 22.6454 153.138 23.5903 152.879 24.5006C152.63 25.401 152.271 26.2469 151.803 27.0385C151.335 27.8201 150.777 28.5374 150.13 29.1905C149.483 29.8336 148.761 30.3877 147.964 30.8527C147.167 31.3177 146.311 31.6789 145.395 31.9361C144.488 32.1835 143.542 32.3071 142.556 32.3071H136.402C136.237 32.3071 136.103 32.174 136.103 32.0098V11.322C136.103 11.1577 136.237 11.0246 136.402 11.0246H142.556C143.542 11.0246 144.488 11.1533 145.395 11.4105C146.311 11.6579 147.167 12.0141 147.964 12.4791C148.761 12.9441 149.483 13.5031 150.13 14.1562C150.777 14.7993 151.335 15.5166 151.803 16.3082C152.271 17.0898 152.63 17.9358 152.879 18.846C153.138 19.7464 153.267 20.6864 153.267 21.6659ZM148.98 21.6659C148.98 20.7853 148.811 19.9591 148.472 19.1874C148.143 18.4156 147.685 17.7428 147.098 17.169C146.52 16.5852 145.838 16.1251 145.051 15.7887C144.274 15.4523 143.443 15.2841 142.556 15.2841H140.42V28.0477H142.556C143.443 28.0477 144.274 27.8844 145.051 27.5579C145.838 27.2215 146.52 26.7664 147.098 26.1925C147.685 25.6087 148.143 24.931 148.472 24.1592C148.811 23.3776 148.98 22.5465 148.98 21.6659Z" fill="#0C131D"/>
<path d="M160.497 12.0932C160.497 12.4692 160.423 12.8204 160.273 13.147C160.134 13.4735 159.94 13.7604 159.691 14.0078C159.442 14.2452 159.148 14.4381 158.809 14.5866C158.481 14.7251 158.127 14.7943 157.749 14.7943C157.37 14.7943 157.012 14.7251 156.673 14.5866C156.345 14.4381 156.056 14.2452 155.807 14.0078C155.568 13.7604 155.374 13.4735 155.224 13.147C155.085 12.8204 155.015 12.4692 155.015 12.0932C155.015 11.7271 155.085 11.3808 155.224 11.0543C155.374 10.7179 155.568 10.431 155.807 10.1935C156.056 9.94617 156.345 9.75323 156.673 9.61471C157.012 9.4663 157.37 9.39209 157.749 9.39209C158.127 9.39209 158.481 9.4663 158.809 9.61471C159.148 9.75323 159.442 9.94617 159.691 10.1935C159.94 10.431 160.134 10.7179 160.273 11.0543C160.423 11.3808 160.497 11.7271 160.497 12.0932ZM159.795 32.0098C159.795 32.174 159.661 32.3071 159.496 32.3071H155.987C155.821 32.3071 155.687 32.174 155.687 32.0098V16.7094C155.687 16.5452 155.821 16.412 155.987 16.412H159.496C159.661 16.412 159.795 16.5452 159.795 16.7094V32.0098Z" fill="#0C131D"/>
<path d="M174.301 24.2186C174.301 23.6645 174.191 23.1302 173.972 22.6157C173.763 22.0913 173.474 21.6313 173.106 21.2355C172.737 20.8298 172.304 20.5083 171.806 20.2708C171.318 20.0234 170.795 19.8998 170.237 19.8998C169.68 19.8998 169.152 19.9938 168.654 20.1818C168.166 20.3697 167.738 20.6468 167.369 21.0129C167.011 21.379 166.727 21.8341 166.518 22.3783C166.309 22.9126 166.204 23.526 166.204 24.2186C166.204 24.8815 166.309 25.4801 166.518 26.0144C166.727 26.5388 167.011 26.989 167.369 27.365C167.738 27.7409 168.166 28.0328 168.654 28.2406C169.152 28.4385 169.68 28.5374 170.237 28.5374C170.795 28.5374 171.318 28.4187 171.806 28.1812C172.304 27.9339 172.737 27.6123 173.106 27.2166C173.474 26.8109 173.763 26.3508 173.972 25.8363C174.191 25.3119 174.301 24.7727 174.301 24.2186ZM178.409 30.3036C178.409 31.4216 178.195 32.4704 177.766 33.4499C177.338 34.4294 176.751 35.2853 176.004 36.0175C175.267 36.7496 174.4 37.3285 173.404 37.7539C172.418 38.1794 171.363 38.3921 170.237 38.3921L168.486 38.3667C168.322 38.3643 168.191 38.2319 168.191 38.0694V34.6125C168.191 34.4465 168.328 34.3127 168.495 34.3152L170.208 34.3404C170.845 34.3404 171.388 34.2563 171.836 34.0881C172.284 33.9298 172.662 33.7072 172.971 33.4202C173.28 33.1432 173.524 32.8216 173.703 32.4555C173.892 32.0895 174.042 31.7036 174.151 31.2979C173.992 31.5552 173.763 31.7679 173.464 31.9361C173.165 32.0944 172.832 32.223 172.463 32.322C172.105 32.4308 171.726 32.505 171.328 32.5446C170.94 32.5842 170.576 32.604 170.237 32.604C169.112 32.604 168.051 32.411 167.056 32.0251C166.07 31.6393 165.203 31.0901 164.456 30.3778C163.719 29.6555 163.137 28.7749 162.708 27.736C162.28 26.6971 162.066 25.5246 162.066 24.2186C162.066 23.0214 162.28 21.9083 162.708 20.8793C163.137 19.8503 163.719 18.9598 164.456 18.2079C165.203 17.4559 166.07 16.8672 167.056 16.4417C168.051 16.0163 169.112 15.8036 170.237 15.8036C170.755 15.8036 171.268 15.8679 171.776 15.9965C172.284 16.1251 172.777 16.3032 173.255 16.5308C173.733 16.7583 174.186 17.0255 174.614 17.3322C175.053 17.6389 175.461 17.9704 175.839 18.3266L177.333 16.5485C177.39 16.4809 177.474 16.4417 177.563 16.4417H178.11C178.275 16.4417 178.409 16.5748 178.409 16.739V30.3036Z" fill="#0C131D"/>
<path d="M186.341 12.0932C186.341 12.4692 186.267 12.8204 186.117 13.147C185.978 13.4735 185.784 13.7604 185.535 14.0078C185.286 14.2452 184.992 14.4381 184.653 14.5866C184.325 14.7251 183.971 14.7943 183.593 14.7943C183.214 14.7943 182.856 14.7251 182.517 14.5866C182.188 14.4381 181.899 14.2452 181.651 14.0078C181.411 13.7604 181.217 13.4735 181.068 13.147C180.928 12.8204 180.859 12.4692 180.859 12.0932C180.859 11.7271 180.928 11.3808 181.068 11.0543C181.217 10.7179 181.411 10.431 181.651 10.1935C181.899 9.94617 182.188 9.75323 182.517 9.61471C182.856 9.4663 183.214 9.39209 183.593 9.39209C183.971 9.39209 184.325 9.4663 184.653 9.61471C184.992 9.75323 185.286 9.94617 185.535 10.1935C185.784 10.431 185.978 10.7179 186.117 11.0543C186.267 11.3808 186.341 11.7271 186.341 12.0932ZM185.639 32.0098C185.639 32.174 185.505 32.3071 185.34 32.3071H181.83C181.665 32.3071 181.531 32.174 181.531 32.0098V16.7094C181.531 16.5452 181.665 16.412 181.83 16.412H185.34C185.505 16.412 185.639 16.5452 185.639 16.7094V32.0098Z" fill="#0C131D"/>
<path d="M195.885 32.3071C194.9 32.3071 193.973 32.1241 193.107 31.758C192.24 31.382 191.479 30.8725 190.821 30.2293C190.174 29.5763 189.661 28.8194 189.283 27.9586C188.914 27.0978 188.73 26.1777 188.73 25.1981C188.73 19.1748 188.73 16.9444 188.73 10.3869C188.73 10.2227 188.864 10.0896 189.029 10.0896H192.494C192.659 10.0896 192.793 10.2227 192.793 10.3869V16.4417H198.678C198.844 16.4417 198.978 16.5748 198.978 16.739V20.1813C198.978 20.3455 198.844 20.4786 198.678 20.4786H192.793V25.1981C192.793 25.6236 192.873 26.0243 193.032 26.4003C193.192 26.7664 193.411 27.0879 193.69 27.365C193.968 27.642 194.297 27.8646 194.675 28.0328C195.054 28.1911 195.457 28.2703 195.885 28.2703H198.678C198.844 28.2703 198.978 28.4034 198.978 28.5676V32.0098C198.978 32.174 198.844 32.3071 198.678 32.3071H195.885Z" fill="#0C131D"/>
<path d="M216.77 32.0098C216.77 32.174 216.636 32.3071 216.47 32.3071H215.937C215.841 32.3071 215.75 32.2612 215.694 32.1837L214.2 30.1255C213.812 30.4718 213.398 30.7983 212.96 31.105C212.532 31.4018 212.079 31.664 211.601 31.8916C211.123 32.1093 210.63 32.2824 210.122 32.411C209.624 32.5396 209.116 32.604 208.598 32.604C207.473 32.604 206.412 32.416 205.416 32.04C204.43 31.664 203.564 31.1198 202.817 30.4074C202.08 29.6852 201.497 28.8046 201.069 27.7657C200.641 26.7268 200.427 25.5444 200.427 24.2186C200.427 22.9818 200.641 21.8489 201.069 20.8199C201.497 19.781 202.08 18.8906 202.817 18.1485C203.564 17.4064 204.43 16.8326 205.416 16.4269C206.412 16.0113 207.473 15.8036 208.598 15.8036C209.116 15.8036 209.629 15.8679 210.137 15.9965C210.645 16.1251 211.138 16.3032 211.616 16.5308C212.094 16.7583 212.547 17.0255 212.975 17.3322C213.413 17.6389 213.822 17.9704 214.2 18.3266L215.694 16.5485C215.751 16.4809 215.835 16.4417 215.924 16.4417H216.47C216.636 16.4417 216.77 16.5748 216.77 16.739V32.0098ZM212.661 24.2186C212.661 23.6645 212.552 23.1302 212.333 22.6157C212.124 22.0913 211.835 21.6313 211.466 21.2355C211.098 20.8298 210.665 20.5083 210.167 20.2708C209.679 20.0234 209.156 19.8998 208.598 19.8998C208.04 19.8998 207.513 19.9938 207.015 20.1818C206.527 20.3697 206.098 20.6468 205.73 21.0129C205.371 21.379 205.088 21.8341 204.878 22.3783C204.669 22.9126 204.565 23.526 204.565 24.2186C204.565 24.9112 204.669 25.5296 204.878 26.0738C205.088 26.6081 205.371 27.0582 205.73 27.4243C206.098 27.7904 206.527 28.0675 207.015 28.2554C207.513 28.4434 208.04 28.5374 208.598 28.5374C209.156 28.5374 209.679 28.4187 210.167 28.1812C210.665 27.9339 211.098 27.6123 211.466 27.2166C211.835 26.8109 212.124 26.3508 212.333 25.8363C212.552 25.3119 212.661 24.7727 212.661 24.2186Z" fill="#0C131D"/>
<path d="M224 32.0098C224 32.174 223.866 32.3071 223.701 32.3071H220.191C220.026 32.3071 219.892 32.174 219.892 32.0098V10.3869C219.892 10.2227 220.026 10.0896 220.191 10.0896H223.701C223.866 10.0896 224 10.2227 224 10.3869V32.0098Z" fill="#0C131D"/>
<path d="M18.4755 0.100792C18.9671 -0.185588 19.5816 0.172388 19.5816 0.745149V43.2548C19.5816 43.8276 18.9671 44.1856 18.4755 43.8992L12.6947 40.5314C12.4666 40.3985 12.326 40.1529 12.326 39.8871V4.11293C12.326 3.84711 12.4666 3.60148 12.6947 3.46857L18.4755 0.100792Z" fill="#56CCF2"/>
<path d="M0.368683 33.4865C0.140541 33.3535 0 33.1079 0 32.8421V11.1577C0 10.8919 0.140541 10.6462 0.368682 10.5133L6.14952 7.14554C6.6411 6.85916 7.25557 7.21714 7.25557 7.7899V36.2099C7.25557 36.7826 6.6411 37.1406 6.14952 36.8542L0.368683 33.4865Z" fill="#56CCF2"/>
<path d="M44.0001 11.1578C44.0001 10.892 43.8596 10.6463 43.6314 10.5134L25.758 0.100792C25.2664 -0.185588 24.6519 0.172389 24.6519 0.74515V9.26536C24.6519 9.53342 24.7948 9.78076 25.026 9.91283L35.0349 15.6309C35.2661 15.763 35.409 16.0104 35.409 16.2784V27.7219C35.409 27.99 35.2661 28.2373 35.0349 28.3694L25.026 34.0875C24.7948 34.2196 24.6519 34.4669 24.6519 34.735V43.2548C24.6519 43.8276 25.2664 44.1856 25.758 43.8992L43.6314 33.4866C43.8596 33.3537 44.0001 33.108 44.0001 32.8422V11.1578Z" fill="#2F80ED"/>
</svg>
